# xmcd CD database file
#
# Track frame offsets:
#	150
#	2533
#	21457
#	39985
#	47630
#	69268
#	85643
#	89880
#	103585
#	122945
#	136753
#	159788
#	162143
#	190603
#
# Disc length: 2684 seconds
#
# Revision: 0
# Processed by: cddbd v1.5.1PL0 Copyright (c) Steve Scherf et al.
# Submitted via: CDex 1.51
#
DISCID=a30a7a0e
DTITLE=Storytellers - - Enjoy Storytellers!
DYEAR=1994
DGENRE=Jazz
TTITLE0=And now...
TTITLE1=Sleep. Sing.
TTITLE2=Haute couture 1906
TTITLE3=Whatever happened to Harold
TTITLE4=The hidden motive
TTITLE5=Guess baby blue
TTITLE6=to something...
TTITLE7=Try sitting on it
TTITLE8=Shallow waters
TTITLE9=Teenage wedding march
TTITLE10=Stromboli vs. Anna Magnani
TTITLE11=completely different
TTITLE12=Tintinnabulum
TTITLE13=You at the other
EXTD=YEAR: 1994
EXTT0=
EXTT1=
EXTT2=
EXTT3=
EXTT4=
EXTT5=
EXTT6=
EXTT7=
EXTT8=
EXTT9=
EXTT10=
EXTT11=
EXTT12=
EXTT13=
PLAYORDER=
